<svg xmlns="http://www.w3.org/2000/svg" version="1.1" xmlns:xlink="http://www.w3.org/1999/xlink" xmlns:svgjs="http://svgjs.dev/svgjs" width="1500" height="1500" viewBox="0 0 1500 1500"><rect width="1500" height="1500" fill="#444444"></rect><g transform="matrix(0.6666666666666666,0,0,0.6666666666666666,249.39393939393955,630.2480361277858)"><svg viewBox="0 0 396 95" data-background-color="#444444" preserveAspectRatio="xMidYMid meet" height="359" width="1500" xmlns="http://www.w3.org/2000/svg" xmlns:xlink="http://www.w3.org/1999/xlink"><g id="tight-bounds" transform="matrix(1,0,0,1,0.23999999999995225,0.033857525878914885)"><svg viewBox="0 0 395.52 94.93207695284804" height="94.93207695284804" width="395.52"><g><svg viewBox="0 0 554.3854526275625 133.06270846070805" height="94.93207695284804" width="395.52"><g transform="matrix(1,0,0,1,158.86545262756255,39.2067382519673)"><svg viewBox="0 0 395.52 54.64923195677345" height="54.64923195677345" width="395.52"><g id="textblocktransform"><svg viewBox="0 0 395.52 54.64923195677345" height="54.64923195677345" width="395.52" id="textblock"><g><svg viewBox="0 0 395.52 54.64923195677345" height="54.64923195677345" width="395.52"><g transform="matrix(1,0,0,1,0,0)"><svg width="395.52" viewBox="1.1 -35.05 259.08 35.8" height="54.64923195677345" data-palette-color="#ffffff"><g class="wordmark-text-0" data-fill-palette-color="primary" id="text-0"><path d="M14.7 0L1.1 0 1.1-0.5 2-0.8Q3-1.15 3.35-1.75 3.7-2.35 3.7-3.35L3.7-3.35Q3.75-6.35 3.75-9.4 3.75-12.45 3.75-15.5L3.75-15.5 3.75-17.5Q3.75-20.5 3.75-23.53 3.75-26.55 3.7-29.55L3.7-29.55Q3.7-30.55 3.43-31.15 3.15-31.75 2.2-32.1L2.2-32.1 1.1-32.5 1.1-33 25.3-33 25.65-24.7 25.15-24.7 22.3-29.95Q21.8-30.9 21.15-31.45 20.5-32 19.35-32L19.35-32 11.3-32Q11.25-28.45 11.25-24.75 11.25-21.05 11.25-17.4L11.25-17.4 16.45-17.4Q17.6-17.4 18.15-17.9 18.7-18.4 19.2-19.35L19.2-19.35 20.25-21.25 20.75-21.25 20.75-12.5 20.25-12.5 19.15-14.4Q18.65-15.3 18.13-15.85 17.6-16.4 16.45-16.4L16.45-16.4 11.25-16.4Q11.25-12.9 11.25-9.73 11.25-6.55 11.3-3.5L11.3-3.5Q11.3-1.55 13.2-0.95L13.2-0.95 14.7-0.5 14.7 0ZM36.95 0.75L36.95 0.75Q35 0.75 33.37 0 31.75-0.75 30.82-2.43 29.9-4.1 29.95-6.85L29.95-6.85 30.1-19.7Q30.1-20.85 29.7-21.35 29.3-21.85 28.45-22.05L28.45-22.05 27.85-22.25 27.85-22.75 36.8-24.5 37.3-24 37.05-16.9 37.05-4.85Q37.05-3.25 37.97-2.5 38.9-1.75 40.3-1.75L40.3-1.75Q41.7-1.75 42.8-2.15 43.9-2.55 45-3.35L45-3.35 45.2-19.65Q45.2-20.8 44.85-21.28 44.5-21.75 43.55-21.95L43.55-21.95 43.05-22.1 43.05-22.6 51.8-24.5 52.3-24 52.15-16.9 52.15-3.35Q52.15-2.25 52.45-1.65 52.75-1.05 53.75-0.65L53.75-0.65 54.25-0.5 54.25 0 45.5 0.5 45.05-2.45Q43.4-1.1 41.47-0.18 39.55 0.75 36.95 0.75ZM64.9 0.75L64.9 0.75Q62.45 0.75 60.5 0.18 58.55-0.4 56.9-1.25L56.9-1.25 56.95-7.2 57.45-7.2 59.15-4.2Q60.25-2.2 61.57-1.23 62.9-0.25 64.95-0.25L64.95-0.25Q67.34-0.25 68.82-1.33 70.3-2.4 70.3-4.2L70.3-4.2Q70.3-5.85 69.25-6.9 68.2-7.95 65.34-8.8L65.34-8.8 63.25-9.45Q60.2-10.35 58.45-12.25 56.7-14.15 56.7-16.9L56.7-16.9Q56.7-20.2 59.3-22.5 61.9-24.8 66.75-24.8L66.75-24.8Q68.7-24.8 70.42-24.38 72.15-23.95 73.75-23.1L73.75-23.1 73.45-17.7 72.95-17.7 71.2-20.8Q70.25-22.45 69.32-23.13 68.4-23.8 66.55-23.8L66.55-23.8Q64.84-23.8 63.35-22.85 61.85-21.9 61.85-20.15L61.85-20.15Q61.85-18.45 63.12-17.45 64.4-16.45 66.9-15.6L66.9-15.6 69.15-14.95Q72.75-13.85 74.3-11.93 75.84-10 75.84-7.3L75.84-7.3Q75.84-3.65 72.97-1.45 70.09 0.75 64.9 0.75ZM84.04-27.4L84.04-27.4Q82.34-27.4 81.17-28.48 79.99-29.55 79.99-31.2L79.99-31.2Q79.99-32.9 81.17-33.95 82.34-35 84.04-35L84.04-35Q85.74-35 86.89-33.95 88.04-32.9 88.04-31.2L88.04-31.2Q88.04-29.55 86.89-28.48 85.74-27.4 84.04-27.4ZM89.84 0L78.14 0 78.14-0.5 78.84-0.7Q79.84-1 80.22-1.6 80.59-2.2 80.59-3.2L80.59-3.2 80.59-18.85Q80.59-19.9 80.22-20.43 79.84-20.95 78.84-21.15L78.84-21.15 78.14-21.3 78.14-21.8 87.29-24.75 87.79-24.25 87.64-17.15 87.64-3.15Q87.64-2.15 88.02-1.55 88.39-0.95 89.34-0.65L89.34-0.65 89.84-0.5 89.84 0ZM104.69 0.75L104.69 0.75Q100.89 0.75 98.09-0.83 95.29-2.4 93.77-5.3 92.24-8.2 92.24-12.1L92.24-12.1Q92.24-16 93.87-18.85 95.49-21.7 98.32-23.25 101.14-24.8 104.69-24.8L104.69-24.8Q108.24-24.8 111.04-23.28 113.84-21.75 115.47-18.9 117.09-16.05 117.09-12.1L117.09-12.1Q117.09-8.15 115.57-5.28 114.04-2.4 111.27-0.83 108.49 0.75 104.69 0.75ZM104.69-0.25L104.69-0.25Q106.44-0.25 107.49-1.25 108.54-2.25 109.02-4.8 109.49-7.35 109.49-12L109.49-12Q109.49-16.7 109.02-19.25 108.54-21.8 107.49-22.8 106.44-23.8 104.69-23.8L104.69-23.8Q102.94-23.8 101.87-22.8 100.79-21.8 100.32-19.25 99.84-16.7 99.84-12L99.84-12Q99.84-7.35 100.32-4.8 100.79-2.25 101.87-1.25 102.94-0.25 104.69-0.25ZM131.04 0L119.29 0 119.29-0.5 119.99-0.7Q121.74-1.2 121.74-3.15L121.74-3.15 121.74-18.8Q121.74-19.9 121.39-20.43 121.04-20.95 120.04-21.15L120.04-21.15 119.29-21.35 119.29-21.85 127.84-24.75 128.34-24.25 128.74-21.25Q130.49-22.8 132.69-23.8 134.89-24.8 137.04-24.8L137.04-24.8Q140.34-24.8 142.11-23 143.89-21.2 143.89-17.5L143.89-17.5 143.89-3.1Q143.89-1.15 145.79-0.65L145.79-0.65 146.24-0.5 146.24 0 134.44 0 134.44-0.5 135.09-0.7Q136.84-1.25 136.84-3.15L136.84-3.15 136.84-19.1Q136.84-22.3 133.64-22.3L133.64-22.3Q131.44-22.3 128.84-20.1L128.84-20.1 128.84-3.1Q128.84-1.15 130.59-0.65L130.59-0.65 131.04-0.5 131.04 0ZM161.88 0L148.28 0 148.28-0.5 149.19-0.8Q150.19-1.15 150.53-1.75 150.88-2.35 150.88-3.35L150.88-3.35Q150.94-6.35 150.94-9.4 150.94-12.45 150.94-15.5L150.94-15.5 150.94-17.5Q150.94-20.5 150.94-23.53 150.94-26.55 150.88-29.55L150.88-29.55Q150.88-30.55 150.61-31.15 150.34-31.75 149.38-32.1L149.38-32.1 148.28-32.5 148.28-33 172.49-33 172.84-24.7 172.34-24.7 169.49-29.95Q168.99-30.9 168.34-31.45 167.69-32 166.53-32L166.53-32 158.49-32Q158.44-28.45 158.44-24.75 158.44-21.05 158.44-17.4L158.44-17.4 163.63-17.4Q164.78-17.4 165.34-17.9 165.88-18.4 166.38-19.35L166.38-19.35 167.44-21.25 167.94-21.25 167.94-12.5 167.44-12.5 166.34-14.4Q165.84-15.3 165.31-15.85 164.78-16.4 163.63-16.4L163.63-16.4 158.44-16.4Q158.44-12.9 158.44-9.73 158.44-6.55 158.49-3.5L158.49-3.5Q158.49-1.55 160.38-0.95L160.38-0.95 161.88-0.5 161.88 0ZM187.18 0L175.23 0 175.23-0.5 175.83-0.7Q177.63-1.3 177.63-3.2L177.63-3.2 177.63-29.95Q177.63-30.95 177.23-31.48 176.83-32 175.83-32.25L175.83-32.25 175.18-32.4 175.18-32.9 184.33-35.05 184.93-34.6 184.73-27.6 184.73-10.5Q184.73-8.65 184.76-6.83 184.78-5 184.78-3.2L184.78-3.2Q184.78-2.2 185.18-1.58 185.58-0.95 186.53-0.65L186.53-0.65 187.18-0.5 187.18 0ZM196.68 0.75L196.68 0.75Q193.78 0.75 191.81-0.9 189.83-2.55 189.83-5.65L189.83-5.65Q189.83-8 192.23-9.98 194.63-11.95 199.78-12.95L199.78-12.95Q200.58-13.1 201.58-13.28 202.58-13.45 203.68-13.65L203.68-13.65 203.68-17.6Q203.68-21 202.86-22.38 202.03-23.75 200.28-23.75L200.28-23.75Q199.08-23.75 198.38-22.98 197.68-22.2 197.48-20.3L197.48-20.3 197.38-19.75Q197.28-17.6 196.33-16.6 195.38-15.6 193.98-15.6L193.98-15.6Q192.68-15.6 191.83-16.4 190.98-17.2 190.98-18.55L190.98-18.55Q190.98-20.6 192.41-22 193.83-23.4 196.18-24.1 198.53-24.8 201.28-24.8L201.28-24.8Q205.73-24.8 208.16-22.63 210.58-20.45 210.58-15.55L210.58-15.55 210.58-4.5Q210.58-2.25 212.68-2.25L212.68-2.25 213.78-2.25 214.23-1.85Q213.28-0.65 212.16 0 211.03 0.65 208.98 0.65L208.98 0.65Q206.78 0.65 205.51-0.38 204.23-1.4 203.83-3.1L203.83-3.1Q202.33-1.5 200.76-0.38 199.18 0.75 196.68 0.75ZM199.73-2.3L199.73-2.3Q200.73-2.3 201.61-2.78 202.48-3.25 203.68-4.25L203.68-4.25 203.68-12.65Q203.18-12.55 202.68-12.45 202.18-12.35 201.53-12.25L201.53-12.25Q199.23-11.65 197.86-10.23 196.48-8.8 196.48-6.4L196.48-6.4Q196.48-4.35 197.43-3.33 198.38-2.3 199.73-2.3ZM228.23 0L215.28 0 215.28-0.5 216.03-0.7Q217.03-1 217.4-1.6 217.78-2.2 217.78-3.15L217.78-3.15 217.78-18.8Q217.78-19.9 217.4-20.43 217.03-20.95 216.03-21.15L216.03-21.15 215.28-21.35 215.28-21.85 223.88-24.75 224.38-24.25 224.83-19.95 224.83-19.55Q225.53-20.95 226.65-22.13 227.78-23.3 229.15-24.05 230.53-24.8 231.88-24.8L231.88-24.8Q233.78-24.8 234.78-23.75 235.78-22.7 235.78-21.1L235.78-21.1Q235.78-19.4 234.8-18.48 233.83-17.55 232.48-17.55L232.48-17.55Q230.38-17.55 228.78-19.65L228.78-19.65 228.68-19.75Q228.18-20.45 227.53-20.53 226.88-20.6 226.33-19.9L226.33-19.9Q225.83-19.45 225.5-18.82 225.18-18.2 224.88-17.4L224.88-17.4 224.88-3.45Q224.88-1.45 226.63-0.95L226.63-0.95 228.23-0.5 228.23 0ZM249.88-24.8L249.88-24.8Q253.13-24.8 255.43-23.48 257.73-22.15 258.95-19.88 260.18-17.6 260.18-14.7L260.18-14.7Q260.18-14.15 260.13-13.58 260.08-13 259.93-12.55L259.93-12.55 245.03-12.55Q245.08-7.15 246.95-4.78 248.83-2.4 252.53-2.4L252.53-2.4Q255.03-2.4 256.58-3.2 258.13-4 259.48-5.55L259.48-5.55 259.98-5.1Q258.43-2.35 255.85-0.8 253.28 0.75 249.68 0.75L249.68 0.75Q246.13 0.75 243.38-0.78 240.63-2.3 239.08-5.15 237.53-8 237.53-11.95L237.53-11.95Q237.53-16.05 239.33-18.93 241.13-21.8 243.95-23.3 246.78-24.8 249.88-24.8ZM249.73-23.8L249.73-23.8Q248.28-23.8 247.25-22.93 246.23-22.05 245.65-19.83 245.08-17.6 245.03-13.55L245.03-13.55 253.58-13.55Q254.08-19 253.18-21.4 252.28-23.8 249.73-23.8Z" fill="#ffffff" data-fill-palette-color="primary"></path></g></svg></g></svg></g></svg></g></svg></g><g><svg viewBox="0 0 133.06270846070805 133.06270846070805" height="133.06270846070805" width="133.06270846070805"><g><svg></svg></g><g id="icon-0"><svg viewBox="0 0 133.06270846070805 133.06270846070805" height="133.06270846070805" width="133.06270846070805"><g><path d="M0 66.531c0-36.744 29.787-66.531 66.531-66.531 36.744 0 66.531 29.787 66.532 66.531 0 36.744-29.787 66.531-66.532 66.532-36.744 0-66.531-29.787-66.531-66.532zM66.531 128.134c34.022 0 61.603-27.581 61.603-61.603 0-34.022-27.581-61.603-61.603-61.603-34.022 0-61.603 27.581-61.603 61.603 0 34.022 27.581 61.603 61.603 61.603z" data-fill-palette-color="accent" fill="#00d1cd" stroke="transparent"></path></g><g transform="matrix(1,0,0,1,28.02978199258304,33.31205334052361)"><svg viewBox="0 0 77.00314447554197 66.43860177966083" height="66.43860177966083" width="77.00314447554197"><g><svg xmlns="http://www.w3.org/2000/svg" xmlns:xlink="http://www.w3.org/1999/xlink" version="1.1" x="0" y="0" viewBox="-346 263.755 99.959 86.245" enable-background="new -346 256 100 100" xml:space="preserve" height="66.43860177966083" width="77.00314447554197" class="icon-cg-0" data-fill-palette-color="accent" id="cg-0"><path d="M-248.462 340.602c-1.34 0-2.427-1.086-2.427-2.426 0-1.335 1.087-2.422 2.427-2.422 1.336 0 2.421 1.087 2.421 2.422C-246.041 339.516-247.126 340.602-248.462 340.602L-248.462 340.602zM-255.256 340.602c-1.335 0-2.426-1.086-2.426-2.426 0-1.335 1.091-2.422 2.426-2.422 1.337 0 2.428 1.087 2.428 2.422C-252.828 339.516-253.919 340.602-255.256 340.602L-255.256 340.602zM-262.048 340.602c-1.336 0-2.422-1.086-2.422-2.426 0-1.335 1.086-2.422 2.422-2.422 1.34 0 2.427 1.087 2.427 2.422C-259.621 339.516-260.708 340.602-262.048 340.602L-262.048 340.602zM-268.837 340.602c-1.336 0-2.426-1.086-2.426-2.426 0-1.335 1.09-2.422 2.426-2.422s2.427 1.087 2.427 2.422C-266.41 339.516-267.501 340.602-268.837 340.602L-268.837 340.602z" fill="#00d1cd" data-fill-palette-color="accent"></path><path d="M-262.044 331.868c-1.34 0-2.426-1.085-2.426-2.421 0-1.34 1.086-2.426 2.426-2.426 1.336 0 2.423 1.086 2.423 2.426C-259.621 330.783-260.708 331.868-262.044 331.868L-262.044 331.868zM-268.837 331.868c-1.336 0-2.426-1.085-2.426-2.421 0-1.34 1.09-2.426 2.426-2.426s2.427 1.086 2.427 2.426C-266.41 330.783-267.501 331.868-268.837 331.868L-268.837 331.868z" fill="#00d1cd" data-fill-palette-color="accent"></path><polygon points="-311.673,340.6 -275.113,340.6 -275.113,293.874 -282.376,293.874 -282.376,324.836 -290.299,318.269   -297.269,324.048 -304.873,317.742 -311.633,324.594 " fill="#00d1cd" data-fill-palette-color="accent"></polygon><polygon points="-315.932,345.301 -315.864,322.241 -304.585,310.854 -297.787,316.884 -294.464,313.561 -304.585,303.439   -315.864,314.719 -326.204,304.379 -335.604,313.779 -335.604,263.755 -346,263.755 -346,350 -292.365,350 -292.365,345.301 " fill="#00d1cd" data-fill-palette-color="accent"></polygon></svg></g></svg></g></svg></g></svg></g></svg></g><defs></defs></svg><rect width="395.52" height="94.93207695284804" fill="none" stroke="none" visibility="hidden"></rect></g></svg></g></svg>